<?xml version="1.0" encoding="UTF-8" standalone="no"?><svg xmlns="http://www.w3.org/2000/svg" xmlns:xlink="http://www.w3.org/1999/xlink" contentScriptType="text/ecmascript" fill="#000000" width="786.1" zoomAndPan="magnify" contentStyleType="text/css" viewBox="-12.3 -1.6 786.1 1002.3" height="1002.3" preserveAspectRatio="xMidYMid meet" version="1"><defs><clipPath id="a"><path d="M 70 60 L 773.820312 60 L 773.820312 766 L 70 766 Z M 70 60"/></clipPath></defs><g><g id="change1_1" clip-path="url(#a)"><path fill="#1d1d1b" d="M 470.617188 85.765625 C 416.53125 78.335938 361.984375 86.148438 308.488281 108.976562 C 175.175781 165.867188 86.566406 300.679688 93.007812 436.816406 C 101.691406 620.3125 240.777344 721.015625 374.765625 739.417969 C 511.476562 758.191406 638.839844 697.101562 707.152344 579.980469 C 762.527344 485.042969 766.101562 372.707031 716.953125 271.78125 C 667.964844 171.183594 573.574219 99.902344 470.617188 85.765625 Z M 371.722656 761.574219 C 371.714844 761.574219 371.730469 761.578125 371.722656 761.574219 C 228.566406 741.914062 79.957031 634.199219 70.667969 437.875 C 67.242188 365.535156 88.394531 293.121094 131.832031 228.460938 C 173.382812 166.609375 233.003906 116.871094 299.710938 88.402344 C 356.980469 63.964844 415.507812 55.621094 473.660156 63.605469 C 583.917969 78.746094 684.847656 154.765625 737.0625 261.992188 C 789.53125 369.742188 785.671875 489.753906 726.472656 591.25 C 653.515625 716.335938 517.566406 781.605469 371.722656 761.574219"/></g><g id="change1_2"><path fill="#1d1d1b" d="M 567.722656 406.09375 C 556.394531 404.535156 545.320312 399.800781 537.554688 392.34375 C 526.785156 382.003906 524.324219 367.757812 530.964844 354.226562 L 531.707031 352.71875 C 536.8125 342.375 538.402344 338.453125 534.871094 331.65625 C 532.226562 326.546875 528.179688 322.484375 523.890625 318.1875 C 516.4375 310.710938 507.992188 302.234375 505.5625 287.335938 C 505.308594 285.78125 504.96875 284.101562 504.621094 282.371094 C 502.578125 272.214844 500.039062 259.570312 508.71875 251.710938 C 514.105469 246.824219 521.761719 245.855469 531.480469 248.828125 C 540.941406 251.726562 548.050781 256.726562 553.761719 260.742188 C 564.222656 268.097656 567.03125 270.074219 578.144531 261.890625 C 606.265625 241.164062 603.964844 226.894531 597.285156 214.558594 C 590.109375 201.324219 572.316406 195.128906 553.476562 188.570312 C 534.316406 181.898438 514.503906 175 502.421875 159.328125 C 486.800781 139.070312 490.863281 107.59375 496.898438 79.476562 C 498.195312 73.4375 504.144531 69.585938 510.179688 70.890625 C 516.21875 72.1875 520.0625 78.132812 518.769531 84.171875 C 514.464844 104.226562 509.921875 132.421875 520.136719 145.671875 C 528.148438 156.066406 544.023438 161.59375 560.832031 167.445312 C 582.863281 175.117188 605.644531 183.050781 616.949219 203.902344 C 631.632812 231.023438 623.039062 256.589844 591.410156 279.898438 C 567.328125 297.632812 552.050781 286.886719 540.894531 279.039062 C 535.871094 275.507812 531.125 272.167969 525.195312 270.296875 C 525.523438 272.859375 526.140625 275.9375 526.550781 277.96875 C 526.953125 279.980469 527.34375 281.9375 527.636719 283.742188 C 528.910156 291.535156 533.449219 296.09375 539.734375 302.394531 C 544.78125 307.460938 550.503906 313.199219 554.726562 321.359375 C 563.648438 338.546875 557.335938 351.335938 551.761719 362.621094 L 551.042969 364.085938 C 548.625 369.011719 549.203125 372.519531 553.042969 376.210938 C 561.054688 383.902344 578.429688 386.738281 587.464844 381.835938 C 590.585938 380.144531 593.558594 377.292969 591.96875 368.96875 L 591.640625 367.269531 C 589.734375 357.425781 587.121094 343.945312 593.773438 331.90625 L 595.390625 328.945312 C 601.589844 317.546875 608.617188 304.621094 621.691406 300.769531 C 628.894531 298.644531 636.539062 299.738281 644.410156 304.035156 C 648.269531 306.144531 652.148438 309.398438 656.257812 312.847656 C 659.449219 315.527344 667.253906 322.078125 671.203125 323.304688 C 671.191406 321.957031 671.074219 320.269531 670.984375 318.988281 C 670.539062 312.6875 669.988281 304.847656 674.730469 297.964844 C 683.941406 284.535156 701.554688 287.222656 712.085938 288.824219 L 714.34375 289.164062 C 714.359375 289.164062 714.378906 289.167969 714.394531 289.171875 C 720.890625 290.0625 727.964844 288.949219 735.371094 285.855469 C 741.074219 283.472656 747.621094 286.164062 750.003906 291.863281 C 752.382812 297.566406 749.691406 304.113281 743.992188 306.496094 C 732.851562 311.148438 721.855469 312.769531 711.3125 311.324219 C 711.28125 311.320312 711.253906 311.316406 711.226562 311.3125 L 708.714844 310.9375 C 705.421875 310.433594 695.507812 308.921875 693.238281 310.582031 C 692.902344 311.871094 693.148438 315.3125 693.296875 317.414062 C 693.792969 324.5 694.835938 339.246094 680.269531 344.503906 C 665.539062 349.847656 651.859375 338.363281 641.875 329.976562 C 638.789062 327.386719 635.597656 324.707031 633.699219 323.671875 C 632.003906 322.746094 629.644531 321.742188 628.015625 322.222656 C 623.835938 323.453125 618.753906 332.804688 615.039062 339.632812 L 613.355469 342.714844 C 610.625 347.660156 612.207031 355.816406 613.601562 363.015625 L 613.941406 364.777344 C 617.03125 380.988281 611.265625 394.371094 598.132812 401.496094 C 589.515625 406.171875 578.5 407.570312 567.722656 406.09375"/></g><g id="change1_3"><path fill="#1d1d1b" d="M 655.304688 673.078125 C 650.519531 672.421875 646.535156 668.695312 645.773438 663.679688 C 644.992188 658.53125 642.835938 653.238281 640.550781 647.632812 C 637.550781 640.289062 634.15625 631.964844 633.519531 622.613281 C 633.15625 617.363281 633.828125 611.960938 634.476562 606.734375 C 635.753906 596.457031 636.261719 590.007812 632.574219 587.128906 C 629.882812 585.015625 626.953125 585.613281 618.289062 588.742188 C 614.171875 590.234375 609.503906 591.917969 604.566406 592.585938 C 594.183594 593.988281 578.433594 591.136719 568.40625 582.992188 C 563.140625 578.679688 560.667969 573.371094 558.679688 569.109375 C 557.199219 565.933594 556.222656 563.9375 554.882812 562.886719 C 553.359375 561.695312 551.824219 560.78125 550.195312 559.816406 C 544.226562 556.261719 535.203125 550.890625 537.628906 534.179688 C 540.113281 517.199219 550.476562 504.414062 559.621094 493.136719 C 562.328125 489.796875 564.882812 486.644531 567.183594 483.476562 C 571.398438 477.679688 576.511719 473.410156 581.019531 469.644531 C 588.304688 463.558594 592.128906 460.097656 592.589844 454.003906 C 592.882812 450.226562 592.769531 446.21875 592.652344 441.976562 C 592.261719 428.066406 591.773438 410.761719 607.558594 397.695312 C 620.292969 387.128906 633.480469 388.589844 644.078125 389.761719 C 646.941406 390.082031 649.652344 390.382812 652.363281 390.488281 C 653.109375 390.382812 654.863281 389.820312 655.933594 389.480469 C 659.238281 388.425781 662.65625 387.335938 666.457031 387.78125 C 675.710938 388.828125 679.394531 394.578125 681.175781 397.335938 C 681.4375 397.742188 681.628906 398.027344 681.769531 398.230469 C 685.753906 398.5625 695.179688 395.425781 697.722656 392.820312 C 698.613281 391.109375 699.316406 388.667969 700.054688 386.085938 C 701.480469 381.117188 703.253906 374.929688 707.683594 369.691406 C 716.023438 359.851562 732.875 355.734375 737.839844 354.710938 C 746.136719 353 754.496094 353.753906 762.6875 356.964844 C 768.4375 359.214844 771.273438 365.707031 769.019531 371.453125 C 766.765625 377.207031 760.269531 380.039062 754.527344 377.789062 C 750.378906 376.164062 746.402344 375.78125 742.367188 376.613281 C 733.957031 378.355469 726.675781 381.878906 724.753906 384.148438 C 723.429688 385.710938 722.519531 388.886719 721.554688 392.25 C 720.496094 395.9375 719.300781 400.121094 717.035156 404.121094 C 711.101562 414.644531 694.792969 418.746094 691.585938 419.460938 C 685.046875 420.914062 675.851562 421.660156 669.203125 416.921875 C 666.21875 414.796875 664.375 412.429688 663.164062 410.648438 C 663.011719 410.699219 662.867188 410.746094 662.730469 410.789062 C 659.6875 411.761719 655.898438 412.96875 651.90625 412.851562 C 648.199219 412.726562 644.851562 412.351562 641.613281 411.992188 C 631.925781 410.921875 627.035156 410.597656 621.828125 414.917969 C 614.78125 420.753906 614.644531 428.375 615.011719 441.347656 C 615.140625 445.980469 615.273438 450.773438 614.890625 455.71875 C 613.695312 471.492188 603.527344 479.984375 595.359375 486.808594 C 591.503906 490.03125 587.859375 493.074219 585.277344 496.625 C 582.632812 500.265625 579.765625 503.804688 576.996094 507.222656 C 568.953125 517.144531 561.355469 526.515625 559.761719 537.40625 C 559.636719 538.28125 559.589844 538.90625 559.578125 539.335938 C 560.167969 539.722656 560.980469 540.203125 561.636719 540.59375 C 563.578125 541.753906 565.996094 543.191406 568.65625 545.261719 C 574.300781 549.691406 576.878906 555.214844 578.949219 559.65625 C 580.1875 562.3125 581.257812 564.609375 582.539062 565.660156 C 586.574219 568.933594 595.664062 571.21875 601.582031 570.417969 C 604.148438 570.070312 607.324219 568.925781 610.6875 567.710938 C 619.773438 564.425781 633.507812 559.457031 646.355469 569.507812 C 660.285156 580.398438 658.199219 597.214844 656.671875 609.492188 C 656.132812 613.855469 655.621094 617.980469 655.832031 621.085938 C 656.226562 626.851562 658.671875 632.84375 661.257812 639.1875 C 663.9375 645.753906 666.707031 652.542969 667.886719 660.316406 C 668.816406 666.425781 664.617188 672.128906 658.511719 673.054688 C 657.421875 673.222656 656.34375 673.222656 655.304688 673.078125"/></g><g id="change1_4"><path fill="#1d1d1b" d="M 367.511719 227.460938 C 351.984375 225.328125 335.070312 216.757812 327.445312 209.609375 C 316.96875 199.800781 313.015625 188.09375 309.523438 177.761719 C 307.449219 171.628906 305.492188 165.832031 302.347656 160.867188 C 301.003906 158.730469 299.402344 156.738281 297.703125 154.628906 C 293.25 149.09375 287.707031 142.203125 286.558594 131.492188 C 285.429688 120.925781 286.589844 110.535156 287.714844 100.492188 L 287.796875 99.746094 C 288.484375 93.609375 294.015625 89.1875 300.152344 89.871094 C 306.289062 90.601562 310.710938 96.09375 310.027344 102.230469 L 309.941406 102.980469 C 308.90625 112.234375 307.929688 120.980469 308.796875 129.113281 C 309.226562 133.109375 311.261719 135.800781 315.128906 140.609375 C 317.058594 143.007812 319.246094 145.726562 321.265625 148.933594 C 325.824219 156.132812 328.308594 163.484375 330.714844 170.601562 C 333.742188 179.570312 336.359375 187.3125 342.742188 193.285156 C 348.527344 198.710938 366.613281 206.652344 376.34375 205.492188 C 377.753906 205.320312 378.835938 204.949219 379.101562 204.542969 C 380.402344 202.542969 379.714844 194.199219 379.382812 190.191406 C 379.027344 185.902344 378.691406 181.855469 378.988281 178.023438 C 379.796875 167.578125 382.414062 153.054688 390.265625 143.199219 C 397.738281 133.8125 398.351562 132.769531 395.992188 126.164062 C 388.359375 104.84375 389.585938 87.269531 400.109375 67.40625 C 402.996094 61.949219 409.765625 59.863281 415.222656 62.757812 C 420.683594 65.648438 422.761719 72.414062 419.871094 77.875 C 412.203125 92.359375 411.464844 103.027344 417.054688 118.636719 C 423.664062 137.15625 416.007812 146.777344 407.898438 156.960938 C 404.484375 161.246094 402.066406 169.699219 401.285156 179.753906 C 401.128906 181.796875 401.402344 185.125 401.671875 188.34375 C 402.40625 197.246094 403.328125 208.328125 397.832031 216.765625 C 395.015625 221.074219 389.472656 226.445312 379 227.699219 C 375.382812 228.132812 371.492188 228.007812 367.511719 227.460938"/></g><g id="change1_5"><path fill="#1d1d1b" d="M 411.816406 764.828125 C 406.335938 764.074219 402.128906 759.351562 402.167969 753.671875 C 402.320312 731.007812 420.464844 715.710938 431.304688 706.570312 C 445.046875 694.945312 462.164062 680.464844 468.238281 663.15625 C 469.351562 659.976562 470.1875 656.828125 471.074219 653.5 C 472.402344 648.492188 473.78125 643.320312 476.183594 637.707031 C 478.003906 633.429688 478.234375 631.574219 478.230469 630.902344 C 478.109375 630.8125 477.921875 630.691406 477.660156 630.550781 C 475.898438 629.59375 473.007812 629.4375 469.660156 629.25 C 466.714844 629.089844 463.371094 628.902344 459.882812 628.113281 C 454.019531 626.792969 448.90625 624.269531 444.398438 622.042969 C 442.632812 621.171875 440.851562 620.285156 439.015625 619.484375 C 435.515625 617.949219 431.957031 616.539062 428.1875 615.050781 C 416.398438 610.386719 404.210938 605.5625 393.554688 596.695312 C 389.386719 593.230469 385.679688 589.675781 382.09375 586.238281 C 376.527344 580.90625 371.273438 575.867188 365.042969 571.933594 C 355.820312 566.070312 346.660156 559.007812 344.457031 542.773438 C 343.945312 538.996094 342.46875 537.863281 339.917969 537.097656 C 325.65625 532.78125 294.265625 547.039062 287.019531 555.304688 C 286.417969 555.996094 285.835938 556.675781 285.28125 557.328125 C 279.339844 564.289062 271.214844 573.832031 253.480469 567.636719 C 244.964844 564.65625 234.199219 557.285156 231.191406 539.046875 C 230.640625 535.695312 230.585938 531.660156 230.527344 527.390625 C 230.472656 523.230469 230.359375 514.953125 229.179688 511.730469 C 227.257812 511.359375 223.589844 511.285156 221.253906 511.242188 C 217.316406 511.171875 213.246094 511.097656 209.609375 510.167969 C 193.285156 505.996094 186.976562 491.398438 182.371094 480.738281 C 181.960938 479.78125 181.550781 478.835938 181.136719 477.902344 L 179.992188 475.367188 C 168.648438 450.402344 158.222656 422.558594 166.921875 405.316406 C 170.332031 398.5625 176.222656 394.121094 183.960938 392.472656 C 201.347656 388.78125 228.257812 401.421875 238.4375 409.539062 C 249.648438 418.507812 252.371094 431.371094 254.558594 441.707031 C 255 443.792969 255.433594 445.832031 255.914062 447.789062 C 256.851562 443.597656 257.65625 439.273438 258.496094 434.753906 C 261.300781 419.644531 264.199219 404.023438 273.027344 389.859375 C 279.15625 380.085938 289.058594 367.027344 301.519531 360.171875 C 305.660156 357.886719 310.03125 356.539062 314.257812 355.238281 C 320.84375 353.210938 324.953125 351.78125 326.519531 349.050781 C 329.480469 343.871094 322.105469 332.976562 316.179688 324.222656 C 312.066406 318.144531 308.179688 312.40625 306.007812 306.621094 C 304.292969 302.03125 304.296875 297.132812 304.300781 292.808594 C 304.300781 291.164062 304.304688 288.699219 304.113281 287.089844 C 301.261719 288.570312 295.546875 296.070312 292.03125 300.683594 C 281.351562 314.703125 263.472656 338.15625 237.046875 321.785156 C 221.441406 312.066406 218.488281 288.476562 217.945312 278.78125 C 216.265625 249.964844 233.929688 232.386719 248.121094 218.261719 C 250.367188 216.035156 252.792969 213.960938 255.140625 211.953125 C 260.625 207.265625 266.292969 202.421875 267.011719 197.679688 C 268.269531 189.277344 263.222656 173.117188 261.566406 167.808594 C 258.941406 159.46875 254.8125 151.285156 250.4375 142.621094 C 248.296875 138.382812 246.085938 133.992188 244.042969 129.554688 C 241.46875 123.941406 243.929688 117.300781 249.539062 114.722656 C 255.152344 112.148438 261.792969 114.605469 264.371094 120.21875 C 266.238281 124.285156 268.261719 128.296875 270.40625 132.542969 C 274.988281 141.625 279.726562 151.015625 282.910156 161.117188 C 286.988281 174.179688 290.90625 189.113281 289.128906 201.011719 C 287.160156 214.011719 277.464844 222.296875 269.675781 228.953125 C 267.542969 230.777344 265.527344 232.5 263.882812 234.132812 C 248.519531 249.421875 239.253906 259.980469 240.277344 277.503906 C 240.941406 289.296875 244.625 300.15625 248.851562 302.785156 C 255.925781 307.171875 260.121094 305.65625 274.242188 287.125 C 283.726562 274.679688 296.722656 257.636719 315.242188 267.09375 C 326.683594 272.953125 326.671875 285.394531 326.664062 292.828125 C 326.664062 294.828125 326.660156 297.847656 326.964844 298.8125 C 328.1875 302.058594 331.5 306.953125 334.699219 311.683594 C 343.609375 324.847656 355.8125 342.875 345.929688 360.167969 C 339.851562 370.757812 328.867188 374.140625 320.84375 376.613281 C 317.554688 377.628906 314.449219 378.585938 312.3125 379.761719 C 305.949219 383.261719 298.550781 391.261719 291.992188 401.71875 C 285.417969 412.265625 283.023438 425.171875 280.484375 438.839844 C 279.378906 444.808594 278.230469 450.980469 276.699219 457.050781 C 275.03125 463.621094 271.136719 478.976562 258.949219 480.707031 C 253.980469 481.414062 246.699219 479.945312 240.246094 468.949219 C 235.898438 461.574219 234.1875 453.480469 232.675781 446.339844 C 230.660156 436.808594 229.183594 430.777344 224.480469 427.015625 C 216.085938 420.324219 196.4375 412.679688 188.613281 414.351562 C 187.273438 414.636719 187.097656 414.988281 186.890625 415.390625 C 185.007812 419.128906 184.253906 430.679688 200.355469 466.117188 L 201.578125 468.824219 C 202.027344 469.835938 202.464844 470.847656 202.902344 471.867188 C 206.984375 481.308594 209.847656 487.140625 215.15625 488.5 C 216.269531 488.769531 219.382812 488.839844 221.65625 488.882812 C 229.003906 489.011719 237.332031 489.160156 243.519531 494.222656 C 252.550781 501.648438 252.738281 515.753906 252.894531 527.089844 C 252.9375 530.347656 252.980469 533.714844 253.261719 535.40625 C 254.566406 543.316406 257.832031 545.464844 260.855469 546.523438 C 262.78125 547.195312 263.75 547.273438 264.066406 547.277344 C 264.945312 546.699219 266.855469 544.460938 268.269531 542.808594 C 268.878906 542.09375 269.515625 541.34375 270.1875 540.578125 C 281.542969 527.613281 321.527344 508.199219 346.367188 515.679688 C 357.792969 519.117188 364.984375 527.675781 366.621094 539.769531 C 367.4375 545.765625 369.28125 548.125 377.011719 553.039062 C 385.121094 558.15625 391.449219 564.226562 397.570312 570.09375 C 401.027344 573.40625 404.292969 576.53125 407.859375 579.5 C 415.769531 586.082031 425.796875 590.050781 436.414062 594.25 C 440.203125 595.75 444.121094 597.300781 447.984375 598.992188 C 450.128906 599.929688 452.226562 600.960938 454.304688 601.988281 C 458.183594 603.902344 461.535156 605.558594 464.808594 606.296875 C 466.476562 606.679688 468.617188 606.792969 470.882812 606.917969 C 475.90625 607.195312 482.152344 607.535156 488.324219 610.890625 C 497.058594 615.617188 505.621094 625.644531 496.753906 646.492188 C 494.976562 650.636719 493.867188 654.820312 492.691406 659.246094 C 491.734375 662.839844 490.746094 666.554688 489.347656 670.554688 C 481.253906 693.609375 460.726562 710.976562 445.738281 723.660156 C 434.601562 733.046875 424.613281 742.410156 424.535156 753.824219 C 424.492188 760 419.453125 764.972656 413.277344 764.929688 C 412.78125 764.929688 412.292969 764.894531 411.816406 764.828125"/></g><g id="change1_6"><path fill="#1d1d1b" d="M 333.609375 754.277344 C 328.445312 753.566406 324.324219 749.300781 323.984375 743.894531 C 322.839844 725.65625 314.664062 723.609375 311.175781 722.738281 C 298.132812 719.480469 291.863281 713.570312 285.226562 707.316406 C 283.609375 705.792969 281.878906 704.160156 279.886719 702.421875 C 276.945312 699.859375 273.53125 697.523438 269.914062 695.042969 C 264.578125 691.386719 259.0625 687.605469 254.101562 682.492188 C 251.386719 679.695312 249.007812 676.847656 246.710938 674.097656 C 242.503906 669.058594 238.875 664.707031 234.128906 661.730469 C 233.1875 661.136719 231.875 660.488281 230.488281 659.804688 C 224.488281 656.839844 213.316406 651.316406 213.394531 637.414062 C 213.449219 630.425781 216.738281 624.972656 219.140625 620.988281 C 220.277344 619.097656 221.570312 616.953125 221.765625 615.765625 C 223.695312 603.851562 217.699219 591.703125 211.355469 578.847656 C 208.738281 573.542969 206.035156 568.058594 203.886719 562.507812 C 200.203125 552.945312 188.371094 543.570312 176.929688 534.5 C 168.992188 528.207031 160.785156 521.703125 154.769531 514.664062 L 152.726562 512.257812 C 145.289062 503.488281 137.597656 494.425781 129.285156 487.507812 C 127.25 485.808594 123.949219 484.910156 120.121094 483.875 C 114.859375 482.445312 108.308594 480.667969 102.871094 475.769531 C 98.03125 471.4375 95.664062 466.160156 93.761719 461.921875 C 92.714844 459.589844 91.726562 457.386719 90.621094 456.066406 C 89.429688 454.644531 87.523438 453.265625 85.3125 451.667969 C 81.964844 449.246094 78.171875 446.503906 74.917969 442.269531 C 74.152344 441.277344 73.375 440.234375 72.597656 439.160156 C 68.976562 434.160156 70.09375 427.167969 75.09375 423.542969 C 80.097656 419.917969 87.089844 421.035156 90.710938 426.039062 C 91.355469 426.925781 92 427.789062 92.648438 428.628906 C 93.921875 430.292969 96.007812 431.796875 98.417969 433.542969 C 101.410156 435.703125 104.800781 438.15625 107.773438 441.710938 C 110.863281 445.402344 112.617188 449.3125 114.164062 452.761719 C 115.414062 455.542969 116.492188 457.945312 117.816406 459.128906 C 119.3125 460.480469 122.554688 461.355469 125.984375 462.289062 C 131.261719 463.722656 137.832031 465.507812 143.605469 470.324219 C 153.398438 478.472656 161.726562 488.292969 169.78125 497.789062 L 171.789062 500.152344 C 176.378906 505.523438 183.394531 511.082031 190.824219 516.972656 C 204.617188 527.90625 218.882812 539.210938 224.75 554.453125 C 226.53125 559.054688 228.90625 563.859375 231.414062 568.949219 C 238.679688 583.675781 246.914062 600.367188 243.839844 619.359375 C 242.949219 624.808594 240.367188 629.089844 238.296875 632.53125 C 237.457031 633.925781 236.113281 636.15625 235.820312 637.222656 C 236.800781 637.972656 239.003906 639.066406 240.398438 639.753906 C 242.148438 640.617188 244.128906 641.597656 246.03125 642.796875 C 253.769531 647.652344 259.140625 654.085938 263.882812 659.761719 C 266.007812 662.308594 268.015625 664.710938 270.152344 666.914062 C 273.558594 670.425781 277.929688 673.421875 282.558594 676.59375 C 286.539062 679.320312 290.652344 682.140625 294.582031 685.558594 C 296.820312 687.511719 298.757812 689.335938 300.566406 691.039062 C 306.328125 696.46875 309.222656 699.195312 316.597656 701.039062 C 326.886719 703.613281 344.421875 712.417969 346.304688 742.496094 C 346.695312 748.660156 342.007812 753.972656 335.84375 754.359375 C 335.085938 754.40625 334.335938 754.378906 333.609375 754.277344"/></g><g id="change1_7"><path fill="#1d1d1b" d="M 359.632812 825.675781 C 256.753906 811.550781 178.414062 778.390625 121.09375 724.902344 C 64.609375 672.195312 28.921875 601.089844 8.789062 501.117188 C -12.265625 396.585938 4.679688 296.476562 57.796875 211.613281 C 109.699219 128.691406 193.394531 64.34375 299.824219 25.527344 C 305.625 23.410156 312.046875 26.398438 314.160156 32.203125 C 316.277344 38.003906 313.289062 44.425781 307.488281 46.539062 C 96.351562 123.542969 -9.703125 296.03125 30.714844 496.699219 C 59.371094 638.984375 126.933594 787.296875 410.652344 808.550781 C 537.964844 805.917969 573.519531 783.304688 637.96875 742.304688 C 646.234375 737.046875 654.777344 731.609375 664.105469 725.832031 C 669.359375 722.585938 676.25 724.195312 679.503906 729.449219 C 682.757812 734.699219 681.136719 741.589844 675.886719 744.847656 C 666.671875 750.554688 658.183594 755.953125 649.972656 761.175781 C 584.257812 802.980469 544.59375 828.21875 410.574219 830.925781 C 410.222656 830.933594 409.871094 830.925781 409.519531 830.898438 C 392.292969 829.617188 375.65625 827.875 359.632812 825.675781"/></g><g id="change1_8"><path fill="#1d1d1b" d="M 284.214844 110.5 C 278.816406 109.761719 274.632812 105.164062 274.566406 99.550781 C 274.503906 94.335938 266.039062 82.792969 260.980469 75.898438 C 257.621094 71.320312 254.453125 66.992188 252.222656 63.082031 L 251.722656 62.214844 C 243.117188 47.128906 234.21875 31.527344 226.761719 16.035156 C 224.082031 10.46875 226.421875 3.785156 231.988281 1.105469 C 237.554688 -1.570312 244.238281 0.769531 246.914062 6.335938 C 254.03125 21.121094 262.738281 36.378906 271.152344 51.128906 L 271.648438 51.996094 C 273.246094 54.796875 276.050781 58.621094 279.019531 62.671875 C 287.347656 74.027344 296.785156 86.898438 296.929688 99.289062 C 297.003906 105.46875 292.054688 110.53125 285.878906 110.605469 C 285.3125 110.609375 284.757812 110.574219 284.214844 110.5"/></g><g id="change1_9"><path fill="#1d1d1b" d="M 624.609375 771.460938 C 622.410156 771.15625 620.28125 770.203125 618.535156 768.578125 C 609.46875 760.167969 585.859375 722.148438 582.210938 715.628906 C 579.191406 710.238281 581.113281 703.425781 586.503906 700.410156 C 591.894531 697.390625 598.710938 699.316406 601.726562 704.703125 C 607.570312 715.148438 628.589844 747.402344 633.746094 752.183594 C 638.273438 756.382812 638.539062 763.457031 634.339844 767.984375 C 631.761719 770.765625 628.097656 771.9375 624.609375 771.460938"/></g><g id="change1_10"><path fill="#1d1d1b" d="M 308.832031 998.835938 C 303.242188 998.066406 297.710938 996.863281 292.34375 995.0625 C 291.773438 994.871094 291.109375 994.683594 290.375 994.472656 C 281.65625 991.957031 258.496094 985.269531 259.011719 952.84375 C 259.011719 952.730469 259.015625 952.621094 259.019531 952.507812 C 259.703125 937.621094 270.050781 922.21875 283.722656 915.613281 C 296.671875 907.972656 312.457031 910.273438 314.246094 910.582031 C 337.273438 914.296875 356.4375 909.671875 371.105469 896.769531 C 393.894531 876.726562 401.453125 840.738281 400.867188 822.765625 C 400.664062 816.59375 405.503906 811.425781 411.675781 811.222656 C 417.859375 811.015625 423.019531 815.863281 423.21875 822.035156 C 423.863281 841.765625 416.890625 886.285156 385.878906 913.5625 C 365.949219 931.09375 340.636719 937.445312 310.640625 932.65625 C 308.027344 932.269531 299.941406 931.875 294.894531 934.996094 C 294.507812 935.234375 294.105469 935.449219 293.691406 935.640625 C 287.476562 938.503906 281.753906 946.761719 281.371094 953.382812 C 281.191406 968.542969 288.664062 970.699219 296.578125 972.984375 C 297.660156 973.296875 298.636719 973.582031 299.46875 973.859375 C 314.136719 978.78125 332.15625 977.894531 347.894531 976.667969 C 374.980469 974.546875 460.460938 973.5625 517.027344 972.90625 C 533.636719 972.714844 547.238281 972.554688 555.21875 972.414062 L 557.785156 972.378906 C 567.683594 972.273438 597.816406 971.953125 604.78125 957.765625 C 604.925781 957.476562 605.082031 957.1875 605.25 956.90625 C 607.152344 953.765625 608.054688 946.875 605.976562 940.300781 C 603.9375 933.847656 599.71875 929.175781 593.441406 926.414062 C 593.203125 926.308594 592.972656 926.195312 592.742188 926.078125 C 591.152344 925.429688 583.203125 923.898438 571.839844 922.984375 L 571.128906 922.96875 C 571.121094 922.96875 571.117188 922.96875 571.109375 922.96875 L 567.71875 922.929688 C 545.246094 922.699219 511.296875 922.34375 489.257812 898.464844 C 473.65625 881.558594 466.964844 855.597656 469.367188 821.308594 C 469.800781 815.148438 475.144531 810.5 481.308594 810.933594 C 487.453125 811.335938 492.113281 816.710938 491.679688 822.871094 C 489.726562 850.769531 494.441406 871.097656 505.695312 883.296875 C 521.183594 900.082031 548.210938 900.363281 567.949219 900.5625 L 571.429688 900.601562 C 571.601562 900.605469 571.777344 900.605469 571.957031 900.605469 C 572.4375 900.605469 572.976562 900.621094 573.574219 900.683594 C 581.855469 901.347656 596.199219 902.90625 602.699219 906.050781 C 614.648438 911.394531 623.382812 921.15625 627.304688 933.566406 C 631.039062 945.386719 629.992188 958.851562 624.644531 968.050781 C 611.40625 994.179688 572.65625 994.589844 558.019531 994.746094 L 555.640625 994.777344 C 547.609375 994.921875 533.957031 995.082031 517.285156 995.273438 C 464.433594 995.882812 375.980469 996.90625 349.636719 998.964844 C 336.855469 999.960938 322.675781 1000.738281 308.832031 998.835938"/></g><g id="change1_11"><path fill="#1d1d1b" d="M 567.167969 962.71875 C 566.996094 962.695312 566.824219 962.667969 566.65625 962.636719 C 560.902344 961.578125 556.996094 956.292969 557.546875 950.578125 C 555.015625 946.835938 554.914062 941.773438 557.671875 937.863281 C 561.230469 932.816406 568.210938 931.605469 573.253906 935.167969 C 576.503906 937.460938 581.65625 942.910156 579.679688 953.664062 C 578.59375 959.566406 573.054688 963.527344 567.167969 962.71875"/></g><g id="change1_12"><path fill="#1d1d1b" d="M 414.289062 928.097656 C 411.472656 927.710938 408.800781 926.257812 406.933594 923.820312 C 403.175781 918.917969 404.105469 911.898438 409.007812 908.144531 C 420.851562 899.066406 426.558594 888.46875 426.449219 875.738281 C 426.398438 869.566406 431.367188 864.515625 437.539062 864.464844 C 443.714844 864.410156 448.765625 869.375 448.816406 875.554688 C 448.984375 895.507812 440.167969 912.445312 422.613281 925.894531 C 420.144531 927.785156 417.140625 928.492188 414.289062 928.097656"/></g></g></svg>