<?xml version="1.0" encoding="UTF-8" standalone="no"?><svg xmlns="http://www.w3.org/2000/svg" xmlns:xlink="http://www.w3.org/1999/xlink" contentScriptType="text/ecmascript" fill="#000000" width="60" zoomAndPan="magnify" contentStyleType="text/css" viewBox="2.0 16.0 60.0 40.0" height="40" preserveAspectRatio="xMidYMid meet" version="1"><g id="change1_1"><path d="M58,34.1V21a5.006,5.006,0,0,0-5-5H11a5.006,5.006,0,0,0-5,5V34.1A5.009,5.009,0,0,0,2,39V55a1,1,0,0,0,2,0V52H60v3a1,1,0,0,0,2,0V39A5.009,5.009,0,0,0,58,34.1ZM8,21a3,3,0,0,1,3-3H53a3,3,0,0,1,3,3V34H53V28a4,4,0,0,0-4-4H37a4,4,0,0,0-4,4v6H31V28a4,4,0,0,0-4-4H15a4,4,0,0,0-4,4v6H8ZM51,34H35V28a2,2,0,0,1,2-2H49a2,2,0,0,1,2,2ZM29,34H13V28a2,2,0,0,1,2-2H27a2,2,0,0,1,2,2ZM7,36H57a3,3,0,0,1,3,3v7H4V39A3,3,0,0,1,7,36ZM4,48H60v2H4Z" data-name="5"/></g></svg>