<?xml version="1.0" encoding="UTF-8" standalone="no"?><svg xmlns="http://www.w3.org/2000/svg" xmlns:xlink="http://www.w3.org/1999/xlink" contentScriptType="text/ecmascript" fill="#000000" width="397.7" zoomAndPan="magnify" contentStyleType="text/css" viewBox="51.1 36.1 397.7 427.7" height="427.7" preserveAspectRatio="xMidYMid meet" version="1"><g id="change1_1"><path d="M435.904,363.21c0,3.277-2.665,5.953-5.931,5.953h-88.204v-2.403c0-24.466-9.628-46.748-25.296-63.186v-10.649 c0-32.931,26.793-59.745,59.712-59.745c32.926,0,59.718,26.814,59.718,59.745V363.21L435.904,363.21z M328.81,441.414V366.76 c0-43.417-35.356-78.805-78.805-78.805c-43.46,0-78.81,35.388-78.81,78.805v74.654c0,5.243,4.271,9.503,9.513,9.503h138.594 C324.545,450.917,328.81,446.657,328.81,441.414L328.81,441.414z M158.23,366.76v2.403H64.102v-76.238 c0-32.931,26.787-59.745,59.718-59.745c32.926,0,59.712,26.814,59.712,59.745v10.649C167.87,320.012,158.23,342.294,158.23,366.76 L158.23,366.76z M90.993,187.415c0-18.131,14.729-32.822,32.827-32.822s32.822,14.691,32.822,32.822 c0,18.077-14.723,32.822-32.822,32.822S90.993,205.491,90.993,187.415L90.993,187.415z M139.706,81.905 c0-18.077,14.723-32.822,32.827-32.822c18.098,0,32.822,14.745,32.822,32.822c0,18.076-14.723,32.822-32.822,32.822 C154.429,114.727,139.706,99.981,139.706,81.905L139.706,81.905z M232.246,187.415v11.195c-16.454,6.936-28.021,23.21-28.021,42.16 c0,15.728,7.973,29.654,20.097,37.9c-10.109,2.949-19.497,7.591-27.841,13.598c-0.262-30.637-19.573-56.796-46.655-67.227 c11.938-8.246,19.78-22.063,19.78-37.627c0-22.009-15.641-40.467-36.399-44.836c10.819-9.448,24.81-14.909,39.326-14.909 C205.459,127.669,232.246,154.484,232.246,187.415L232.246,187.415z M282.827,240.771c0-18.077-14.723-32.822-32.822-32.822 c-18.093,0-32.822,14.745-32.822,32.822c0,18.131,14.729,32.821,32.822,32.821C268.104,273.592,282.827,258.902,282.827,240.771 L282.827,240.771z M267.765,187.415v11.195c16.449,6.936,28.021,23.21,28.021,42.16c0,15.728-7.973,29.654-20.097,37.9 c10.109,2.949,19.496,7.591,27.841,13.598c0.262-30.637,19.573-56.796,46.655-67.227c-11.944-8.246-19.78-22.063-19.78-37.627 c0-22.009,15.641-40.467,36.388-44.836c-10.808-9.448-24.799-14.909-39.315-14.909C294.552,127.669,267.765,154.484,267.765,187.415 L267.765,187.415z M294.656,81.905c0-18.077,14.723-32.822,32.822-32.822c18.093,0,32.822,14.745,32.822,32.822 c0,18.076-14.729,32.822-32.822,32.822C309.379,114.727,294.656,99.981,294.656,81.905L294.656,81.905z M409.008,187.415 c0,18.077-14.723,32.822-32.822,32.822c-18.093,0-32.816-14.745-32.816-32.822c0-18.131,14.723-32.822,32.816-32.822 C394.284,154.593,409.008,169.284,409.008,187.415L409.008,187.415z M402.197,225.042c11.938-8.246,19.775-22.063,19.775-37.627 c0-22.445-16.219-41.177-37.545-45.054c-8.192-10.322-18.961-18.131-30.998-22.773c11.965-8.246,19.829-22.063,19.829-37.682 c0-25.231-20.529-45.765-45.781-45.765c-25.242,0-45.781,20.534-45.781,45.765c0,15.619,7.837,29.381,19.775,37.627 c-27.262,10.485-46.671,36.972-46.671,67.882v7.809c-2.829-0.293-6.766-0.294-9.59,0v-7.809c0-30.91-19.409-57.397-46.671-67.882 c11.938-8.246,19.78-22.009,19.78-37.627c0-25.231-20.545-45.765-45.786-45.765c-25.247,0-45.792,20.534-45.792,45.765 c0,15.619,7.864,29.436,19.835,37.682c-12.031,4.642-22.795,12.451-30.987,22.773c-21.331,3.877-37.556,22.609-37.556,45.054 c0,15.565,7.842,29.381,19.78,37.627c-27.268,10.486-46.677,36.972-46.677,67.882v82.737c0,3.55,2.905,6.444,6.482,6.444H158.23 v59.308c0,12.397,10.087,22.446,22.478,22.446h138.594c12.391,0,22.467-10.049,22.467-22.446v-59.308h88.204 c10.414,0,18.89-8.465,18.89-18.896v-70.285C448.863,262.014,429.454,235.528,402.197,225.042z" clip-rule="evenodd" fill-rule="evenodd"/></g></svg>