<?xml version="1.0" encoding="UTF-8" standalone="no"?><svg xmlns="http://www.w3.org/2000/svg" xmlns:xlink="http://www.w3.org/1999/xlink" contentScriptType="text/ecmascript" fill="#000000" width="50" zoomAndPan="magnify" contentStyleType="text/css" viewBox="7.0 7.0 50.0 50.0" height="50" preserveAspectRatio="xMidYMid meet" version="1"><g id="change1_1"><path fill="inherit" d="M53.5,13h-4.5v-5c0,-0.552 -0.447,-1 -1,-1c-0.553,0 -1,0.448 -1,1v5h-30v-5c0,-0.552 -0.448,-1 -1,-1c-0.552,0 -1,0.448 -1,1v5h-4.5c-1.93,0 -3.5,1.57 -3.5,3.5v37c0,1.93 1.57,3.5 3.5,3.5h43c1.93,0 3.5,-1.57 3.5,-3.5v-37c0,-1.93 -1.57,-3.5 -3.5,-3.5Zm-43,2h4.5v3c0,0.552 0.448,1 1,1c0.552,0 1,-0.448 1,-1v-3h30v3c0,0.552 0.447,1 1,1c0.553,0 1,-0.448 1,-1v-3h4.5c0.827,0 1.5,0.673 1.5,1.5v6.5h-46v-6.5c0,-0.827 0.673,-1.5 1.5,-1.5Zm43,40h-43c-0.827,0 -1.5,-0.673 -1.5,-1.5v-28.5h46v28.5c0,0.827 -0.673,1.5 -1.5,1.5Z"/><path fill="inherit" d="M14,30h4v4h-4Z"/><path fill="inherit" d="M22,30h4v4h-4Z"/><path fill="inherit" d="M30,30h4v4h-4Z"/><path fill="inherit" d="M38,30h4v4h-4Z"/><path fill="inherit" d="M46,30h4v4h-4Z"/><path fill="inherit" d="M14,38h4v4h-4Z"/><path fill="inherit" d="M22,38h4v4h-4Z"/><path fill="inherit" d="M30,38h4v4h-4Z"/><path fill="inherit" d="M38,38h4v4h-4Z"/><path fill="inherit" d="M46,38h4v4h-4Z"/><path fill="inherit" d="M14,46h4v4h-4Z"/><path fill="inherit" d="M22,46h4v4h-4Z"/><path fill="inherit" d="M30,46h4v4h-4Z"/><path fill="inherit" d="M38,46h4v4h-4Z"/><path fill="inherit" d="M46,46h4v4h-4Z"/></g></svg>