<?xml version="1.0" encoding="UTF-8" standalone="no"?><svg xmlns="http://www.w3.org/2000/svg" xmlns:xlink="http://www.w3.org/1999/xlink" contentScriptType="text/ecmascript" fill="#000000" width="51.7" zoomAndPan="magnify" contentStyleType="text/css" viewBox="24.2 4.7 51.7 90.3" height="90.3" preserveAspectRatio="xMidYMid meet" version="1"><g><g id="change1_1"><path fill="#231f20" d="M72.7,37.5c-0.8,0-1.6-0.3-2.1-1L50,12.2L29.4,36.5c-1,1.2-2.8,1.3-3.9,0.3c-1.2-1-1.3-2.8-0.3-4L47.9,6 c1.1-1.3,3.2-1.3,4.3,0l22.7,26.8c1,1.2,0.9,3-0.3,4C74,37.3,73.3,37.5,72.7,37.5z"/></g><g id="change1_2"><path fill="#231f20" d="M50,95c-1.5,0-2.8-1.3-2.8-2.8V7.8C47.2,6.3,48.5,5,50,5s2.8,1.3,2.8,2.8v84.4C52.8,93.7,51.5,95,50,95z"/></g></g></svg>