<?xml version="1.0" encoding="UTF-8" standalone="no"?><svg xmlns="http://www.w3.org/2000/svg" xmlns:xlink="http://www.w3.org/1999/xlink" contentScriptType="text/ecmascript" fill="#000000" width="113.8" zoomAndPan="magnify" contentStyleType="text/css" viewBox="0.0 0.0 113.8 126.0" height="126" preserveAspectRatio="xMidYMid meet" version="1"><g id="change1_1"><path fill="inherit" d="M63.082,7.622h-3.753l-1.534-3.458c-0.16-0.361-0.519-0.594-0.914-0.594s-0.754,0.233-0.914,0.595l-1.532,3.457h-3.764 c-0.396,0-0.755,0.234-0.915,0.596c-0.16,0.363-0.091,0.786,0.177,1.078l2.56,2.804l-1.897,5.058 c-0.146,0.39-0.035,0.83,0.278,1.104c0.314,0.275,0.764,0.324,1.132,0.128l4.876-2.62l4.883,2.62 c0.148,0.08,0.311,0.119,0.473,0.119c0.237,0,0.472-0.084,0.658-0.248c0.314-0.274,0.425-0.714,0.277-1.104l-1.902-5.059 l2.552-2.804c0.267-0.293,0.335-0.715,0.176-1.078C63.837,7.855,63.478,7.622,63.082,7.622z M59.183,12.23l1.181,3.139l-3.01-1.615 c-0.296-0.159-0.65-0.158-0.946,0l-3.005,1.614l1.178-3.14c0.132-0.352,0.056-0.748-0.198-1.025l-1.444-1.582h2.147 c0.396,0,0.754-0.233,0.914-0.595l0.883-1.99l0.883,1.991c0.16,0.361,0.519,0.594,0.914,0.594h2.141l-1.44,1.583 C59.126,11.482,59.05,11.878,59.183,12.23z"/><path fill="inherit" d="M89.126,7.622h-3.754l-1.534-3.458c-0.16-0.361-0.519-0.594-0.914-0.594S82.17,3.803,82.01,4.165l-1.531,3.457h-3.764 c-0.396,0-0.755,0.234-0.915,0.596c-0.16,0.363-0.091,0.786,0.177,1.078l2.56,2.804l-1.897,5.058 c-0.146,0.39-0.035,0.83,0.278,1.104c0.314,0.275,0.765,0.324,1.132,0.128l4.875-2.62l4.884,2.62 c0.148,0.08,0.311,0.119,0.473,0.119c0.237,0,0.473-0.084,0.659-0.248c0.313-0.274,0.424-0.715,0.276-1.104l-1.903-5.059 l2.553-2.804c0.267-0.293,0.336-0.715,0.176-1.078S89.521,7.622,89.126,7.622z M85.226,12.23l1.181,3.139l-3.01-1.615 c-0.147-0.079-0.311-0.119-0.473-0.119c-0.163,0-0.325,0.04-0.474,0.119l-3.004,1.614l1.178-3.14 c0.132-0.352,0.056-0.748-0.198-1.025l-1.444-1.582h2.147c0.396,0,0.754-0.233,0.914-0.595l0.882-1.99l0.883,1.99 c0.16,0.361,0.519,0.594,0.914,0.594h2.142l-1.441,1.583C85.169,11.482,85.093,11.878,85.226,12.23z"/><path fill="inherit" d="M37.049,7.622h-3.764l-1.531-3.457c-0.16-0.361-0.519-0.595-0.914-0.595s-0.754,0.233-0.914,0.594l-1.534,3.458h-3.754 c-0.396,0-0.755,0.233-0.915,0.596s-0.091,0.785,0.176,1.078l2.553,2.804l-1.903,5.059c-0.147,0.39-0.037,0.83,0.276,1.104 c0.187,0.163,0.422,0.248,0.659,0.248c0.162,0,0.324-0.039,0.473-0.119l4.884-2.62l4.875,2.62c0.367,0.196,0.816,0.147,1.132-0.128 c0.313-0.274,0.425-0.714,0.278-1.104L35.228,12.1l2.56-2.804c0.268-0.292,0.337-0.715,0.177-1.078 C37.804,7.855,37.445,7.622,37.049,7.622z M33.14,12.229l1.178,3.14l-3.004-1.614c-0.296-0.159-0.65-0.159-0.946,0l-3.01,1.615 l1.181-3.139c0.133-0.352,0.057-0.748-0.196-1.025L26.9,9.622h2.142c0.396,0,0.754-0.233,0.914-0.594l0.883-1.99l0.882,1.99 c0.16,0.361,0.519,0.595,0.914,0.595h2.147l-1.444,1.582C33.084,11.481,33.008,11.877,33.14,12.229z"/><path fill="inherit" d="M112.764,116.886h-5.105V21.079c0-0.552-0.447-1-1-1h-7.69V1c0-0.552-0.447-1-1-1H15.785c-0.553,0-1,0.448-1,1v19.079 h-7.69c-0.553,0-1,0.448-1,1v95.807H1c-0.553,0-1,0.447-1,1V125c0,0.553,0.447,1,1,1h111.764c0.553,0,1-0.447,1-1v-7.114 C113.764,117.333,113.316,116.886,112.764,116.886z M16.785,2h80.183v18.079H16.785V2z M8.095,22.079h7.69h82.183h7.69v94.807 H76.484V96.725h0.54c0.553,0,1-0.447,1-1c0-9.71-9.486-17.609-21.147-17.609s-21.148,7.899-21.148,17.609c0,0.553,0.447,1,1,1 h0.551v20.161H8.095V22.079z M65.761,116.886v-15.745c0-0.553-0.447-1-1-1H48.992c-0.553,0-1,0.447-1,1v15.745h-3.667V96.725 h25.113v20.161H65.761z M63.761,116.886H49.992v-14.745h13.769V116.886z M37.768,94.725c0.634-8.144,8.963-14.609,19.109-14.609 s18.475,6.466,19.108,14.609h-0.501h-5.046H43.325h-5.046H37.768z M39.279,96.725h3.046v20.161h-3.046V96.725z M71.438,96.725 h3.046v20.161h-3.046V96.725z M111.764,124H2v-5.114h5.095h31.185h5.046h5.667h15.769h5.678h5.046h31.174h5.105V124z"/><path fill="inherit" d="M51.344,43.375h11.065c0.553,0,1-0.448,1-1V31.311c0-0.552-0.447-1-1-1H51.344c-0.553,0-1,0.448-1,1v11.065 C50.344,42.928,50.791,43.375,51.344,43.375z M52.344,32.311h9.065v9.065h-9.065V32.311z"/><path fill="inherit" d="M51.344,59.056h11.065c0.553,0,1-0.448,1-1V46.992c0-0.552-0.447-1-1-1H51.344c-0.553,0-1,0.448-1,1v11.064 C50.344,58.608,50.791,59.056,51.344,59.056z M52.344,47.992h9.065v9.064h-9.065V47.992z"/><path fill="inherit" d="M51.344,74.737h11.065c0.553,0,1-0.447,1-1V62.672c0-0.552-0.447-1-1-1H51.344c-0.553,0-1,0.448-1,1v11.065 C50.344,74.29,50.791,74.737,51.344,74.737z M52.344,63.672h9.065v9.065h-9.065V63.672z"/><path fill="inherit" d="M69.348,43.375h11.065c0.553,0,1-0.448,1-1V31.311c0-0.552-0.447-1-1-1H69.348c-0.553,0-1,0.448-1,1v11.065 C68.348,42.928,68.795,43.375,69.348,43.375z M70.348,32.311h9.065v9.065h-9.065V32.311z"/><path fill="inherit" d="M69.348,59.056h11.065c0.553,0,1-0.448,1-1V46.992c0-0.552-0.447-1-1-1H69.348c-0.553,0-1,0.448-1,1v11.064 C68.348,58.608,68.795,59.056,69.348,59.056z M70.348,47.992h9.065v9.064h-9.065V47.992z"/><path fill="inherit" d="M69.348,74.737h11.065c0.553,0,1-0.447,1-1V62.672c0-0.552-0.447-1-1-1H69.348c-0.553,0-1,0.448-1,1v11.065 C68.348,74.29,68.795,74.737,69.348,74.737z M70.348,63.672h9.065v9.065h-9.065V63.672z"/><path fill="inherit" d="M87.352,43.375h11.065c0.553,0,1-0.448,1-1V31.311c0-0.552-0.447-1-1-1H87.352c-0.553,0-1,0.448-1,1v11.065 C86.352,42.928,86.799,43.375,87.352,43.375z M88.352,32.311h9.065v9.065h-9.065V32.311z"/><path fill="inherit" d="M87.352,59.056h11.065c0.553,0,1-0.448,1-1V46.992c0-0.552-0.447-1-1-1H87.352c-0.553,0-1,0.448-1,1v11.064 C86.352,58.608,86.799,59.056,87.352,59.056z M88.352,47.992h9.065v9.064h-9.065V47.992z"/><path fill="inherit" d="M87.352,74.737h11.065c0.553,0,1-0.447,1-1V62.672c0-0.552-0.447-1-1-1H87.352c-0.553,0-1,0.448-1,1v11.065 C86.352,74.29,86.799,74.737,87.352,74.737z M88.352,63.672h9.065v9.065h-9.065V63.672z"/><path fill="inherit" d="M80.76,82.879v25.69c0,0.553,0.447,1,1,1h16.657c0.553,0,1-0.447,1-1v-25.69c0-0.553-0.447-1-1-1H81.76 C81.207,81.879,80.76,82.326,80.76,82.879z M82.76,83.879h14.657v23.69H82.76V83.879z"/><path fill="inherit" d="M33.341,43.375h11.064c0.553,0,1-0.448,1-1V31.311c0-0.552-0.447-1-1-1H33.341c-0.553,0-1,0.448-1,1v11.065 C32.341,42.928,32.788,43.375,33.341,43.375z M34.341,32.311h9.064v9.065h-9.064V32.311z"/><path fill="inherit" d="M33.341,59.056h11.064c0.553,0,1-0.448,1-1V46.992c0-0.552-0.447-1-1-1H33.341c-0.553,0-1,0.448-1,1v11.064 C32.341,58.608,32.788,59.056,33.341,59.056z M34.341,47.992h9.064v9.064h-9.064V47.992z"/><path fill="inherit" d="M45.405,73.737V62.672c0-0.552-0.447-1-1-1H33.341c-0.553,0-1,0.448-1,1v11.065c0,0.553,0.447,1,1,1h11.064 C44.958,74.737,45.405,74.29,45.405,73.737z M43.405,72.737h-9.064v-9.065h9.064V72.737z"/><path fill="inherit" d="M15.337,43.375h11.064c0.553,0,1-0.448,1-1V31.311c0-0.552-0.447-1-1-1H15.337c-0.553,0-1,0.448-1,1v11.065 C14.337,42.928,14.784,43.375,15.337,43.375z M16.337,32.311h9.064v9.065h-9.064V32.311z"/><path fill="inherit" d="M15.337,59.056h11.064c0.553,0,1-0.448,1-1V46.992c0-0.552-0.447-1-1-1H15.337c-0.553,0-1,0.448-1,1v11.064 C14.337,58.608,14.784,59.056,15.337,59.056z M16.337,47.992h9.064v9.064h-9.064V47.992z"/><path fill="inherit" d="M15.337,74.737h11.064c0.553,0,1-0.447,1-1V62.672c0-0.552-0.447-1-1-1H15.337c-0.553,0-1,0.448-1,1v11.065 C14.337,74.29,14.784,74.737,15.337,74.737z M16.337,63.672h9.064v9.065h-9.064V63.672z"/><path fill="inherit" d="M31.993,81.879H15.337c-0.553,0-1,0.447-1,1v25.69c0,0.553,0.447,1,1,1h16.656c0.553,0,1-0.447,1-1v-25.69 C32.993,82.326,32.546,81.879,31.993,81.879z M30.993,107.569H16.337v-23.69h14.656V107.569z"/></g></svg>