<?xml version="1.0" encoding="UTF-8"?>
<svg id="Layer_1" xmlns="http://www.w3.org/2000/svg" version="1.1" viewBox="0 0 305.04 33.77">
  <!-- Generator: Adobe Illustrator 30.0.0, SVG Export Plug-In . SVG Version: 2.1.1 Build 123)  -->
  <defs>
    <style>
      .st0 {
        fill: #fff;
      }
    </style>
  </defs>
  <g>
    <path class="st0" d="M57.26,25.06v2.42h-12.33V5.18h2.55v19.88h9.78Z"/>
    <path class="st0" d="M77.4,18.31c0,5.8-3.5,9.3-9.33,9.3s-9.4-3.5-9.4-9.3V5.18h2.55v13.13c0,4.33,2.61,6.85,6.85,6.85s6.79-2.52,6.79-6.85V5.18h2.55v13.13Z"/>
    <path class="st0" d="M99.57,27.49h-3.06l-6.79-9.33-6.72,9.33h-2.99l8.19-11.47-7.61-10.83h3l6.15,8.6,6.21-8.6h3l-7.58,10.71,8.22,11.6Z"/>
    <path class="st0" d="M121.14,18.31c0,5.8-3.5,9.3-9.33,9.3s-9.4-3.5-9.4-9.3V5.18h2.55v13.13c0,4.33,2.61,6.85,6.85,6.85s6.79-2.52,6.79-6.85V5.18h2.55v13.13Z"/>
    <path class="st0" d="M136.4,20.38c-.48.03-.99.06-1.5.06h-5.93v7.04h-2.55V5.18h8.48c5.58,0,8.79,2.74,8.79,7.49,0,3.7-1.78,6.18-5,7.23l5.22,7.58h-2.9l-4.62-7.1ZM134.91,17.99c4.05,0,6.34-1.78,6.34-5.26s-2.29-5.1-6.34-5.1h-5.93v10.35h5.93Z"/>
    <path class="st0" d="M156.12,27.49h-2.52v-7.55l-8.63-14.75h2.64l7.23,11.63,7.14-11.63h2.61l-8.47,14.66v7.65Z"/>
    <path class="st0" d="M170.49,8.56v6.02h10.9v3.38h-10.9v6.15h12.55v3.38h-16.31V5.18h15.93v3.38h-12.17Z"/>
    <path class="st0" d="M201.81,7.32l-1.56,3.31c-2.42-1.46-4.84-2.07-6.53-2.07-2.2,0-3.63.83-3.63,2.33,0,4.88,12.04,2.26,12.01,10.29,0,3.98-3.5,6.44-8.41,6.44-3.5,0-6.82-1.43-9.11-3.54l1.62-3.25c2.29,2.1,5.16,3.25,7.55,3.25,2.61,0,4.17-.99,4.17-2.71,0-4.97-12.04-2.2-12.04-10.13,0-3.82,3.28-6.21,8.12-6.21,2.9,0,5.74.92,7.81,2.29Z"/>
    <path class="st0" d="M223.89,8.53l-2.2,2.74c-1.62-1.75-3.95-2.84-6.21-2.84-4.46,0-7.97,3.44-7.97,7.84s3.5,7.87,7.97,7.87c2.23,0,4.52-1.02,6.21-2.64l2.23,2.49c-2.26,2.23-5.48,3.66-8.63,3.66-6.53,0-11.6-4.94-11.6-11.34s5.13-11.21,11.72-11.21c3.15,0,6.31,1.31,8.47,3.44Z"/>
    <path class="st0" d="M229.78,22.45l-2.13,5.03h-3.92l9.84-22.3h3.85l9.75,22.3h-4.01l-2.13-5.03h-11.25ZM235.39,9.2l-4.21,9.91h8.41l-4.21-9.91Z"/>
    <path class="st0" d="M258.08,5.18c5.61,0,8.83,2.77,8.83,7.62s-3.22,7.96-8.83,7.96h-5.13v6.72h-3.76V5.18h8.89ZM252.95,17.39h4.97c3.44,0,5.38-1.47,5.38-4.49s-1.94-4.33-5.38-4.33h-4.97v8.83Z"/>
    <path class="st0" d="M273.43,8.56v6.02h10.9v3.38h-10.9v6.15h12.55v3.38h-16.31V5.18h15.93v3.38h-12.17Z"/>
    <path class="st0" d="M304.75,7.32l-1.56,3.31c-2.42-1.46-4.84-2.07-6.53-2.07-2.2,0-3.63.83-3.63,2.33,0,4.88,12.04,2.26,12.01,10.29,0,3.98-3.5,6.44-8.41,6.44-3.5,0-6.82-1.43-9.11-3.54l1.62-3.25c2.29,2.1,5.16,3.25,7.55,3.25,2.61,0,4.17-.99,4.17-2.71,0-4.97-12.04-2.2-12.04-10.13,0-3.82,3.28-6.21,8.12-6.21,2.9,0,5.74.92,7.81,2.29Z"/>
  </g>
  <g>
    <path class="st0" d="M28.2,29.66s-.03.02-.04.03c.36-.29.21-.18.04-.03Z"/>
    <path class="st0" d="M28.17,29.69s-.03.02-.04.04c-.17.14-.31.25.04-.04Z"/>
    <path class="st0" d="M26.03,31.18s.04-.02.07-.04c-.02.01-.05.03-.07.04Z"/>
    <path class="st0" d="M21.41,12.96c.42-.76,1.18-2.31.55-3.14-.57-.75-1.76.61-2.09,1.04-1.35,1.73-2.28,3.86-2.63,6.02,1.91-.58,3.34-2.16,4.17-3.92Z"/>
    <path class="st0" d="M26.89,30.39c1.15-.66,2.13-1.58,3.05-2.54,1.08-1.2,2.01-2.56,2.66-3.82-.91,1.61-2.14,3.32-3.59,4.49.6-.48,2.24-2.54,2.62-3.13-2.99,4.05-11.79,7.85-17,5.98-.28-.11.44-.06.45-.1,4.87.27,9.79-1.71,13.09-5.8,2.05-2.55,3.17-5.55,3.41-8.58.02-.24.02-.55.03-.93.09-4.68-1.89-9.34-5.82-12.51C19.06-1.96,9.21-.9,3.78,5.84c-.76.94-1.38,1.95-1.89,3-4.37,8.22-.92,18.94,7.61,23.19-.23-.14-.46-.28-.68-.44,1.41.98,3.28,1.44,4.9,1.9-1.52-.31-2.93-.82-4.22-1.46,4.02,2.4,10.03,2.13,14.11.42-.43.13-.85.24-1.26.34-1.17.34-2.38.56-3.62.66,1.29-.18,2.43-.37,3.62-.66,1.28-.37,2.51-.91,3.67-1.6-.13.07-.04,0,.53-.35.27-.16.82-.51,1.57-1.11.03-.02.05-.04.08-.07.76-.63,1.71-1.52,2.66-2.77-.3.32-.61.65-.92.97-.93,1.02-1.96,1.93-3.05,2.54ZM19.56,8.3c.72-.27,1.45-.03,2.1.32.71.39,1.5.87,2.01,1.52,1.16,1.5-.06,3.25-1.09,4.44-1.1,1.27-2.62,2.24-4.19,2.82-.27.1-1.13.22-1.23.44-.15.3-.01,1.02.03,1.34.09.68.32,1.63,1.1,1.81,1.77.42,2.88-.96,2.74-2.43-.02-.17-.04-.34-.09-.51-.05-.15-.17-.32-.17-.48,0-.46.57-.4.87-.27.77.34.95.44.85,1.22-.25,1.83-1.86,3.16-3.67,3.22-2.21.07-3.17-2.14-3.36-4.03.01.13.02.22,0,0-.04-.42-.02-.19,0,0-.18-1.85.35-3.82,1.04-5.52.58-1.44,1.53-3.29,3.08-3.88ZM11.93,26.26c-.56-.06-1.13-.06-1.67.13-.45.16-.7.55-1.13.73-.4.17-.8-.05-.63-.52.08-.22.26-.38.36-.6.1-.23.2-.47.29-.71.42-1.11.64-2.26.89-3.41,1.03-4.7,2.89-14.16,2.89-14.16,0,0,0-.01,0-.02-.46.44-1.63,1.62-2.09,2.37-.59.96-.88,3.16-.62,3.42.45.45.38.87.16,1.17-.29.41-1.53-.06-2.01-.49-1.7-1.49-.11-3.29.86-4.42.85-.99,3.55-3.01,3.73-3.22.03-.12.51-1.14.74-1.58.42-.83.93-1.36,1.83-1.6.26-.07.87-.23,1.08.03.2.27-.08.84-.2,1.09-.4.86-.62,1.74-.86,2.65-.54,2.07-1.06,4.16-1.57,6.24-.5,2.07-1.03,4.15-1.58,6.21-.28,1.05-.6,2.1-.97,3.13-.35.96-.66,1.97-1.13,2.87,1.77-.43,3.59,0,5.38-.06.85-.03,1.73-.17,2.53-.46.48-.18,1.56-1.14,1.74-.19.21,1.11-.45,2.16-1.48,2.55-1.14.44-2.36.2-3.43-.3-.98-.45-2.03-.73-3.1-.84Z"/>
    <path class="st0" d="M26.1,31.14c.13-.07.33-.2.55-.33-.18.12-.36.22-.55.33Z"/>
    <path class="st0" d="M26.64,30.82c.23-.15.48-.31.63-.42-.2.15-.42.28-.63.42Z"/>
  </g>
</svg>